<svg width="954" height="216" viewBox="0 0 954 216" fill="none" xmlns="http://www.w3.org/2000/svg">
<path d="M104.516 172.833H233.548V89.6545C233.55 77.8802 231.255 66.2208 226.792 55.3424C222.33 44.4639 215.788 34.5795 207.54 26.2538C199.292 17.9282 189.501 11.3243 178.724 6.81963C167.948 2.31493 156.398 -0.00240817 144.734 1.87791e-06H131.667C120.005 1.63134e-06 108.457 2.31912 97.6822 6.8249C86.9078 11.3307 77.1182 17.9349 68.8725 26.2603C60.6269 34.5857 54.0866 44.4693 49.6253 55.3466C45.1639 66.2239 42.8689 77.8818 42.8713 89.6545V153.35H0V172.833H0.109041C5.72466 172.833 11.2853 173.95 16.4734 176.119C21.6616 178.288 26.3757 181.468 30.3465 185.476C34.3174 189.485 37.4672 194.243 39.6162 199.481C41.7652 204.718 42.8713 210.331 42.8713 216H61.7899C61.7875 210.334 62.8908 204.722 65.0367 199.486C67.1825 194.25 70.3291 189.492 74.2965 185.484C78.264 181.475 82.9747 178.295 88.1598 176.125C93.3448 173.954 98.9026 172.835 104.516 172.833ZM61.7899 153.35V89.6545C61.7851 70.94 69.1438 52.9897 82.2478 39.7514C95.3518 26.5131 113.128 19.0707 131.667 19.061H144.734C153.916 19.061 163.009 20.8871 171.493 24.435C179.976 27.9828 187.684 33.183 194.177 39.7385C200.669 46.2939 205.818 54.0762 209.331 62.6409C212.843 71.2056 214.65 80.3849 214.647 89.6545V153.35H61.7899Z" fill="#00264D"/>
<path d="M143.083 55.0457C151.95 55.0554 160.452 58.6143 166.724 64.9421C172.996 71.2699 176.526 79.8502 176.541 88.8015V117.42H99.8301V88.8015C99.8446 79.8502 103.375 71.2699 109.647 64.9421C115.918 58.6143 124.42 55.0554 133.288 55.0457H143.083ZM143.083 35.9664H133.288C119.405 35.9664 106.09 41.5323 96.2714 51.4403C86.4529 61.3483 80.9345 74.787 80.9297 88.8015V136.5H195.423V88.8015C195.425 81.8606 194.073 74.9873 191.444 68.5739C188.815 62.1605 184.961 56.3327 180.1 51.4231C175.24 46.5135 169.47 42.6183 163.118 39.9599C156.767 37.3016 149.959 35.9321 143.083 35.9297V35.9664Z" fill="#00264D"/>
<path d="M226.999 6.34585H225.181V11.0973H224.145V6.34585H222.328V5.50195H226.981L226.999 6.34585Z" fill="#00264D"/>
<path d="M227.531 5.50195H228.985L229.948 8.03363C230.166 8.63904 230.366 9.1894 230.512 9.62969C230.657 9.1894 230.857 8.63904 231.075 8.03363L232.093 5.50195H233.547V11.0973H232.529V8.584C232.529 7.7768 232.529 7.15305 232.529 6.74945C232.384 7.18974 232.166 7.80126 231.875 8.584L230.966 11.1157H230.148L229.24 8.584C228.949 7.7768 228.731 7.16528 228.585 6.74945V11.0973H227.586L227.531 5.50195Z" fill="#00264D"/>
<path d="M363.678 43.6359C373.94 37.7295 385.597 34.7433 397.408 34.9952C408.21 34.8153 418.897 37.2498 428.575 42.0949C437.521 46.5515 445.07 53.422 450.384 61.9447C455.773 70.8596 458.761 81.0413 459.052 91.481H437.989C437.65 80.1312 433.815 70.9585 426.485 63.9627C419.155 56.967 409.463 53.4813 397.408 53.5058C384.287 53.5058 373.77 58.1044 365.859 67.3016C357.947 76.4988 353.985 88.7292 353.973 103.993C353.812 113.516 355.639 122.967 359.334 131.731C362.528 139.407 367.8 146.02 374.546 150.81C381.266 155.47 389.255 157.906 397.408 157.782C409.33 157.782 419.022 154.113 426.485 146.774C430.144 143.117 433.045 138.762 435.02 133.962C436.995 129.162 438.004 124.013 437.989 118.816H458.925C458.805 129.402 455.902 139.766 450.511 148.847C445.261 157.473 437.743 164.459 428.793 169.027C419.051 173.961 408.269 176.435 397.371 176.237C385.527 176.493 373.847 173.412 363.641 167.34C353.865 161.335 346.014 152.607 341.034 142.206C335.487 130.468 332.742 117.582 333.019 104.58C332.768 91.9411 335.529 79.4267 341.07 68.0905C346.097 57.8983 353.952 49.4019 363.678 43.6359Z" fill="#00264D"/>
<path d="M523.387 101.014C536.715 101.014 546.595 100.671 553.028 99.9863C558.507 99.6439 563.777 97.735 568.221 94.4827C571.856 91.5657 573.673 86.8326 573.673 80.3016C573.673 73.2569 570.608 66.9399 564.478 61.3507C558.347 55.7614 548.655 52.9668 535.4 52.9668C522.46 52.9668 512.58 56.538 505.759 63.6805C498.922 70.7965 494.664 80.0335 493.674 89.8963H473.247C473.158 80.1739 475.819 70.6277 480.916 62.378C486.247 53.8374 493.787 46.9293 502.724 42.3998C513.089 37.2224 524.549 34.6782 536.109 34.9882C556.366 34.9882 571.099 39.7152 580.307 49.1692C589.515 58.6233 594.113 70.9148 594.101 86.0437V172.268H574.655L573.637 127.908H572.619C570.911 144.578 564.853 156.808 554.446 164.599C543.929 172.42 531.159 176.539 518.099 176.322C504.469 176.322 493.565 173.099 485.387 166.654C477.208 160.208 473.077 151.134 472.992 139.429C472.992 127.394 477.293 117.983 485.895 111.195C494.498 104.408 506.995 101.014 523.387 101.014ZM549.575 152.069C556.927 147.981 563.091 142.023 567.458 134.788C571.466 128.286 573.628 120.798 573.71 113.14V92.96H572.692C572.111 97.5709 569.996 101.846 566.695 105.086C563.533 107.997 558.377 110.272 551.229 111.911C541.043 113.857 530.701 114.852 520.334 114.883C512.495 115.238 506.28 117.341 501.688 121.194C499.446 123.045 497.659 125.394 496.464 128.057C495.269 130.721 494.7 133.627 494.8 136.549C494.8 151.335 504.251 158.729 523.151 158.729C532.363 158.891 541.453 156.594 549.503 152.069H549.575Z" fill="#00264D"/>
<path d="M725.891 83.7248V172.187H705.464V90.4209C705.464 79.4136 702.229 70.6078 695.759 64.0034C689.289 57.399 680.772 54.0846 670.207 54.0601C664.638 53.888 659.106 55.0364 654.056 57.4132C649.006 59.79 644.579 63.3289 641.129 67.7459C633.86 76.8453 630.225 88.7882 630.225 103.575V172.187H609.398V39.1085H628.808L630.08 77.7992H631.606C633.375 64.9084 638.5 54.5493 646.981 46.7219C655.561 38.8594 666.82 34.652 678.403 34.9808C692.712 34.9808 704.222 39.451 712.933 48.3914C721.644 57.3317 725.963 69.1096 725.891 83.7248Z" fill="#00264D"/>
<path d="M783.842 54.5756V137.883C783.842 144.927 785.29 149.569 788.185 151.807C791.093 154.045 796.109 155.164 803.269 155.164C807.873 155.164 813.489 154.907 820.116 154.394V172.739C812.98 173.253 806.68 173.51 801.216 173.51C791.354 173.51 783.775 172.562 778.481 170.666C776.001 169.844 773.709 168.531 771.737 166.805C769.765 165.079 768.153 162.974 766.995 160.613C764.572 155.806 763.36 148.67 763.36 139.203V54.5756H739.898V39.1104H763.415V4.25391H783.079L783.842 39.1104H820.189V54.5756H783.842Z" fill="#00264D"/>
<path d="M883.244 101.012C896.572 101.012 906.452 100.67 912.885 99.9849C918.363 99.6346 923.63 97.7265 928.078 94.4813C931.713 91.5644 933.53 86.8312 933.53 80.3002C933.53 73.2555 930.465 66.9386 924.335 61.3493C918.204 55.76 908.511 52.9654 895.257 52.9654C882.305 52.9654 872.425 56.5367 865.616 63.6792C858.805 70.8055 854.573 80.0414 853.603 89.8949H833.176C833.09 80.1754 835.744 70.6316 840.827 62.3766C846.164 53.8415 853.704 46.9349 862.636 42.3984C872.984 37.2298 884.424 34.6858 895.966 34.9868C916.235 34.9868 930.968 39.7138 940.164 49.1679C949.359 58.6219 953.957 70.9134 953.957 86.0424V172.266H934.584L933.567 127.907H932.549C930.841 144.577 924.753 156.807 914.285 164.598C903.768 172.419 890.998 176.537 877.938 176.321C864.307 176.321 853.403 173.098 845.225 166.653C837.047 160.207 832.946 151.132 832.922 139.428C832.922 127.393 837.217 117.982 845.807 111.194C854.397 104.406 866.876 101.012 883.244 101.012ZM909.432 152.068C916.784 147.979 922.948 142.022 927.315 134.786C931.323 128.284 933.485 120.796 933.567 113.139V92.9586H932.549C931.968 97.5696 929.853 101.845 926.552 105.085C923.389 107.996 918.234 110.271 911.086 111.91C900.9 113.856 890.558 114.851 880.191 114.882C872.364 115.236 866.149 117.34 861.545 121.192C859.303 123.044 857.516 125.393 856.321 128.056C855.126 130.72 854.557 133.626 854.657 136.548C854.657 151.334 864.108 158.727 883.008 158.727C892.244 158.9 901.361 156.603 909.432 152.068Z" fill="#00264D"/>
</svg>
