<svg width="23" height="24" viewBox="0 0 23 24" fill="none" xmlns="http://www.w3.org/2000/svg">
<path d="M0.418782 1.02562C0.153515 1.29636 0 1.71788 0 2.26376V21.7351C0 22.281 0.153515 22.7025 0.418782 22.9733L0.484253 23.0327L11.6751 12.126V11.8685L0.484253 0.961785L0.418782 1.02562Z" fill="black"/>
<path d="M16.7574 15.7671L13.0312 12.1297V11.8722L16.7619 8.23476L16.8454 8.28208L21.2635 10.7331C22.5244 11.4286 22.5244 12.5732 21.2635 13.2732L16.8454 15.7198L16.7574 15.7671Z" fill="black"/>
<path d="M16.1662 16.3953L12.352 12.6765L1.0957 23.6525C1.51449 24.0817 2.19741 24.1335 2.97402 23.7042L16.1662 16.3953Z" fill="black"/>
<path d="M16.1662 7.60294L2.97402 0.29402C2.19741 -0.130802 1.51449 -0.0790771 1.0957 0.350148L12.352 11.3218L16.1662 7.60294Z" fill="black"/>
</svg>
